<svg xmlns="http://www.w3.org/2000/svg" xmlns:xlink="http://www.w3.org/1999/xlink" width="5000" zoomAndPan="magnify" viewBox="0 0 3750 3749.999967" height="5000" preserveAspectRatio="xMidYMid meet" version="1.0"><defs><g/><clipPath id="a6dba64d8d"><path d="M 104 499.925781 L 3641.363281 499.925781 L 3641.363281 3438.554688 L 104 3438.554688 Z M 104 499.925781 " clip-rule="nonzero"/></clipPath><clipPath id="053c30288a"><path d="M 2461.609375 3343.96875 C 2280.84375 3401.078125 2074.085938 3438.554688 1871.734375 3438.554688 C 1669.378906 3438.554688 1474.660156 3406.429688 1295.222656 3349.320312 C 1291.398438 3347.535156 1287.582031 3347.535156 1283.765625 3345.75 C 609.894531 3117.3125 113.554688 2514.089844 104.011719 1833.414062 L 104.011719 499.925781 L 3641.363281 499.925781 L 3641.363281 1832.425781 C 3631.816406 2517.652344 3143.117188 3120.882812 2461.609375 3343.96875 Z M 2461.609375 3343.96875 " clip-rule="nonzero"/></clipPath><clipPath id="4f62215631"><path d="M 1 0.925781 L 3537.363281 0.925781 L 3537.363281 2939.554688 L 1 2939.554688 Z M 1 0.925781 " clip-rule="nonzero"/></clipPath><clipPath id="5ba4491175"><path d="M 2357.609375 2844.96875 C 2176.84375 2902.078125 1970.085938 2939.554688 1767.734375 2939.554688 C 1565.378906 2939.554688 1370.660156 2907.429688 1191.222656 2850.320312 C 1187.398438 2848.535156 1183.582031 2848.535156 1179.765625 2846.75 C 505.894531 2618.3125 9.554688 2015.089844 0.0117188 1334.414062 L 0.0117188 0.925781 L 3537.363281 0.925781 L 3537.363281 1333.425781 C 3527.816406 2018.652344 3039.117188 2621.882812 2357.609375 2844.96875 Z M 2357.609375 2844.96875 " clip-rule="nonzero"/></clipPath><clipPath id="1cc1ceca2f"><rect x="0" width="3538" y="0" height="2940"/></clipPath><clipPath id="6b04c8b875"><path d="M 0 0 L 3724.558594 0 L 3724.558594 3750 L 0 3750 Z M 0 0 " clip-rule="nonzero"/></clipPath><clipPath id="34e696f76c"><rect x="0" width="3725" y="0" height="3750"/></clipPath><clipPath id="aafc61cc97"><rect x="0" width="3725" y="0" height="3750"/></clipPath></defs><g transform="matrix(1, 0, 0, 1, 0, 0.000000000000269639)"><g clip-path="url(#aafc61cc97)"><g clip-path="url(#a6dba64d8d)"><g clip-path="url(#053c30288a)"><g transform="matrix(1, 0, 0, 1, 104, 499)"><g clip-path="url(#1cc1ceca2f)"><g clip-path="url(#4f62215631)"><g clip-path="url(#5ba4491175)"><path fill="#4b5cff" d="M 3537.363281 2939.554688 L 1.824219 2939.554688 L 1.824219 0.925781 L 3537.363281 0.925781 Z M 3537.363281 2939.554688 " fill-opacity="1" fill-rule="nonzero"/></g></g></g></g></g></g><g clip-path="url(#6b04c8b875)"><g transform="matrix(1, 0, 0, 1, 0, 0.000000000000269639)"><g clip-path="url(#34e696f76c)"><g fill="#ffffff" fill-opacity="1"><g transform="translate(-46.672243, 3275.679525)"><g><path d="M 1222.46875 31.859375 L 1206.546875 31.859375 L 402.1875 -2313.546875 C 365.019531 -2422.378906 325.195312 -2519.269531 282.71875 -2604.21875 C 240.25 -2689.175781 199.101562 -2744.925781 159.28125 -2771.46875 L 159.28125 -2787.40625 L 589.34375 -2787.40625 L 589.34375 -2775.453125 C 552.175781 -2764.835938 528.28125 -2749.570312 517.65625 -2729.65625 C 507.039062 -2709.75 501.734375 -2689.175781 501.734375 -2667.9375 C 501.734375 -2649.351562 503.722656 -2634.085938 507.703125 -2622.140625 C 511.679688 -2610.203125 515 -2597.59375 517.65625 -2584.3125 L 1226.453125 -501.734375 C 1237.078125 -472.535156 1246.367188 -454.613281 1254.328125 -447.96875 C 1262.296875 -441.332031 1268.929688 -438.015625 1274.234375 -438.015625 C 1295.472656 -438.015625 1312.726562 -461.910156 1326 -509.703125 L 1951.1875 -2807.3125 L 1967.109375 -2807.3125 L 2707.765625 -501.734375 C 2721.035156 -459.253906 2736.960938 -438.015625 2755.546875 -438.015625 C 2766.160156 -438.015625 2776.113281 -442.660156 2785.40625 -451.953125 C 2794.695312 -461.242188 2804.65625 -480.492188 2815.28125 -509.703125 L 3476.28125 -2632.109375 C 3481.59375 -2650.679688 3484.25 -2670.585938 3484.25 -2691.828125 C 3484.25 -2713.066406 3472.96875 -2732.3125 3450.40625 -2749.5625 C 3427.84375 -2766.820312 3383.375 -2775.453125 3317 -2775.453125 L 3317 -2787.40625 L 3671.40625 -2787.40625 L 3671.40625 -2775.453125 C 3636.894531 -2759.523438 3604.375 -2736.957031 3573.84375 -2707.75 C 3543.3125 -2678.550781 3520.082031 -2637.40625 3504.15625 -2584.3125 L 2691.828125 31.859375 L 2675.90625 31.859375 L 1947.203125 -2229.921875 C 1941.890625 -2248.503906 1934.585938 -2264.429688 1925.296875 -2277.703125 C 1916.003906 -2290.972656 1904.722656 -2297.609375 1891.453125 -2297.609375 C 1870.210938 -2297.609375 1851.628906 -2271.0625 1835.703125 -2217.96875 Z M 1222.46875 31.859375 "/></g></g></g></g></g></g></g></g></svg>